<?xml version="1.0" standalone="no"?>
<!DOCTYPE svg PUBLIC "-//W3C//DTD SVG 20010904//EN"
 "http://www.w3.org/TR/2001/REC-SVG-20010904/DTD/svg10.dtd">
<svg version="1.0" xmlns="http://www.w3.org/2000/svg"
 width="256.000000pt" height="256.000000pt" viewBox="0 0 256.000000 256.000000"
 preserveAspectRatio="xMidYMid meet">

<g transform="translate(0.000000,256.000000) scale(0.100000,-0.100000)"
fill="#000000" stroke="none">
<path d="M1251 2546 c-8 -9 -11 -57 -9 -146 3 -114 6 -134 21 -144 12 -8 22
-8 35 0 14 10 17 30 20 144 3 137 -3 160 -38 160 -10 0 -23 -6 -29 -14z"/>
<path d="M377 2182 c-10 -10 -17 -24 -17 -32 0 -18 167 -187 192 -193 26 -7
58 25 51 51 -6 26 -176 192 -195 192 -8 0 -22 -8 -31 -18z"/>
<path d="M2050 2114 c-49 -47 -90 -95 -93 -106 -7 -26 25 -58 51 -51 26 6 192
176 192 195 0 18 -31 48 -50 48 -7 0 -52 -39 -100 -86z"/>
<path d="M1105 2114 c-41 -10 -81 -28 -110 -48 -16 -12 -52 -27 -79 -34 -58
-15 -99 -42 -122 -81 -11 -18 -31 -33 -54 -40 -21 -6 -54 -25 -75 -41 -77 -61
-112 -140 -125 -281 -4 -53 -18 -120 -30 -154 -47 -127 -26 -242 65 -343 40
-45 42 -51 47 -122 6 -90 29 -141 89 -195 38 -34 43 -43 44 -85 2 -63 33 -110
92 -143 27 -14 69 -50 94 -79 101 -116 217 -129 315 -36 26 24 32 27 37 14 4
-9 28 -30 54 -46 91 -58 179 -34 281 75 33 36 66 65 72 65 47 0 109 93 110
162 0 31 7 44 44 78 56 51 88 125 91 207 2 59 5 66 45 109 52 56 78 115 86
191 5 48 2 71 -21 133 -18 51 -29 108 -35 176 -13 167 -76 270 -190 311 -28
10 -52 27 -65 47 -26 40 -80 75 -126 82 -21 4 -53 17 -71 31 -72 53 -166 63
-250 26 -34 -14 -40 -14 -72 1 -37 17 -109 28 -141 20z m100 -98 l35 -15 0
-716 c0 -509 -3 -723 -11 -738 -6 -12 -25 -37 -42 -54 -58 -62 -125 -39 -211
69 -25 32 -48 51 -67 55 -16 3 -39 17 -50 32 -17 21 -20 35 -15 76 7 59 5 64
-51 99 -44 27 -75 76 -86 133 l-6 32 64 -6 c56 -5 68 -3 108 20 24 14 49 33
57 41 11 14 16 13 47 -14 36 -32 61 -38 81 -18 21 21 13 53 -23 88 -54 53 -67
117 -40 206 13 45 22 56 83 97 39 28 78 47 94 47 40 0 51 46 17 73 -33 26 -69
17 -157 -43 -128 -86 -182 -89 -278 -15 -52 41 -59 44 -78 31 -12 -7 -23 -21
-24 -31 -9 -43 142 -145 214 -145 l32 0 -2 -92 c-3 -91 -3 -91 -39 -125 -49
-44 -86 -44 -158 2 -89 55 -137 145 -125 231 3 24 17 71 31 103 18 45 25 78
25 129 0 94 22 163 68 211 58 61 111 66 172 15 31 -27 60 -81 60 -115 0 -11
11 -24 25 -31 21 -9 28 -8 46 8 16 15 19 25 14 53 -13 68 -60 137 -119 177
l-28 18 26 23 c16 14 40 23 60 23 19 0 46 10 67 26 71 54 123 65 184 40z m271
-1 c20 -8 49 -26 66 -40 19 -16 42 -25 63 -25 21 0 44 -9 61 -23 l26 -23 -28
-18 c-88 -58 -144 -179 -105 -227 16 -21 22 -22 45 -11 16 7 26 20 26 32 0 31
36 95 66 119 54 43 102 40 158 -10 47 -41 75 -119 83 -232 4 -61 12 -105 26
-131 10 -22 22 -66 24 -97 8 -81 -28 -154 -103 -211 -71 -53 -126 -62 -170
-25 -16 14 -39 42 -49 61 -21 38 -42 50 -68 40 -30 -11 -30 -43 1 -97 53 -95
152 -139 238 -107 l27 11 -7 -43 c-9 -58 -38 -100 -97 -142 l-49 -36 6 -53 c5
-44 3 -56 -15 -79 -12 -14 -34 -29 -51 -33 -19 -4 -42 -23 -67 -56 -78 -103
-153 -126 -210 -66 -17 17 -36 42 -42 54 -13 25 -16 1430 -3 1450 20 32 94 41
148 18z"/>
<path d="M1038 888 c-52 -56 -79 -128 -76 -199 2 -46 8 -65 21 -73 30 -19 51
5 59 67 8 61 27 105 64 150 28 33 30 50 8 71 -23 24 -42 20 -76 -16z"/>
<path d="M1427 1629 c-17 -23 -10 -50 17 -66 7 -4 29 -42 48 -84 66 -143 145
-202 269 -201 83 0 123 17 127 54 5 39 -24 51 -85 38 -108 -25 -164 11 -228
144 -47 99 -65 121 -106 131 -21 5 -30 2 -42 -16z"/>
<path d="M1398 1016 c-9 -22 -6 -30 21 -64 37 -48 61 -110 61 -162 0 -43 20
-65 50 -55 46 15 47 109 3 200 -47 97 -110 135 -135 81z"/>
<path d="M12 1308 c-6 -6 -12 -20 -12 -29 0 -34 24 -40 160 -37 114 3 134 6
144 21 8 12 8 22 0 35 -10 15 -30 17 -145 20 -96 2 -138 -1 -147 -10z"/>
<path d="M2262 1308 c-6 -6 -12 -20 -12 -29 0 -34 24 -40 160 -37 114 3 134 6
144 21 8 12 8 22 0 35 -10 15 -30 17 -145 20 -96 2 -138 -1 -147 -10z"/>
<path d="M545 600 c-28 -11 -185 -174 -185 -192 0 -23 36 -51 57 -44 24 8 181
167 183 186 6 41 -19 64 -55 50z"/>
<path d="M1970 590 c-11 -11 -16 -27 -13 -38 6 -26 176 -192 195 -192 18 0 48
31 48 50 0 18 -167 187 -192 193 -11 3 -27 -2 -38 -13z"/>
<path d="M1251 296 c-8 -9 -11 -57 -9 -146 3 -114 6 -134 21 -144 12 -8 22 -8
35 0 14 10 17 30 20 144 3 137 -3 160 -38 160 -10 0 -23 -6 -29 -14z"/>
</g>
</svg>
